Coordinates
version=1
nRows=22
nColumns=24
inDegrees=yes

Units are S.I. units (second, meters, Newtons, ...)
Angles are in degrees.

endheader
time	pelvis_tilt	pelvis_list	pelvis_rotation	pelvis_tx	pelvis_ty	pelvis_tz	hip_flexion_r	hip_adduction_r	hip_rotation_r	knee_angle_r	ankle_angle_r	subtalar_angle_r	mtp_angle_r	hip_flexion_l	hip_adduction_l	hip_rotation_l	knee_angle_l	ankle_angle_l	subtalar_angle_l	mtp_angle_l	lumbar_extension	lumbar_bending	lumbar_rotation
      3.61000000	    -12.54594839	     -4.77467595	     -9.08309996	     -2.07279095	     -0.05618047	      0.48278361	     -3.69157467	      9.26431670	     16.51634032	    -20.06778013	      8.07432252	     14.36119235	      8.49012069	     43.07178048	     -8.54764392	      0.59350363	    -15.71989906	     -3.25136360	     22.32012103	     16.62969053	      6.66912682	      7.04148048	     15.38949418
      3.61500000	    -12.50042780	     -4.69990816	     -8.84266425	     -2.06441882	     -0.05704769	      0.48167933	     -3.84710084	      8.98413788	     15.73723304	    -20.67785071	      7.51262682	     15.46465806	      9.19302920	     43.15750502	     -8.21125207	      0.51608525	    -16.42004538	     -3.68044410	     22.21229775	     17.04985140	      6.72879743	      6.91776411	     15.07868811
      3.62000000	    -12.53129010	     -4.52078544	     -8.66303655	     -2.05588276	     -0.05790042	      0.48070883	     -3.87609285	      8.60505221	     14.96118226	    -21.32148188	      6.75759123	     16.47567590	     10.24198791	     43.26849241	     -7.81831794	      0.48066855	    -17.09822591	     -4.41289958	     21.80936739	     17.64828803	      6.91270191	      6.69313606	     14.90271996
      3.62500000	    -12.56376666	     -4.38596907	     -8.53935845	     -2.04747386	     -0.05875751	      0.47993646	     -3.83604934	      8.28756249	     14.20132284	    -22.10446060	      5.99013959	     17.56775262	     11.03584396	     43.41973950	     -7.52999426	      0.40018264	    -17.93105061	     -5.02165542	     21.68043086	     18.08879414	      7.05655077	      6.50115663	     14.71840858
      3.63000000	    -12.65161858	     -4.19633471	     -8.42257848	     -2.03890857	     -0.05960201	      0.47924890	     -3.72129061	      7.92184814	     13.48250293	    -22.87517041	      5.00942119	     18.54908353	     12.10597019	     43.61705179	     -7.19504265	      0.36447976	    -18.79030531	     -5.79844295	     21.38277122	     18.61133944	      7.30066399	      6.25197059	     14.61204593
      3.63500000	    -12.75806415	     -3.97579513	     -8.36295604	     -2.03034713	     -0.06043137	      0.47882421	     -3.51870017	      7.54310169	     12.81204035	    -23.78972906	      4.07325698	     19.61717609	     12.69566023	     43.85864596	     -6.91780652	      0.14943824	    -19.77851898	     -6.32566654	     21.44867856	     18.87022292	      7.56350868	      5.95030240	     14.47045505
      3.64000000	    -12.93879198	     -3.72035666	     -8.36310705	     -2.02186839	     -0.06125310	      0.47847274	     -3.15272945	      7.12707224	     12.12917497	    -24.79182143	      2.97228441	     20.72630286	     13.56812694	     44.17464526	     -6.63528850	      0.04445343	    -20.78804349	     -6.99089446	     21.26829205	     19.09036793	      7.89383294	      5.63225110	     14.45854603
      3.64500000	    -13.08809004	     -3.50343780	     -8.32922282	     -2.01348212	     -0.06194850	      0.47812827	     -2.79700433	      6.75539411	     11.47602122	    -25.72290385	      1.35606815	     21.50327039	     15.37819979	     44.45953829	     -6.33440140	      0.17721409	    -21.79588547	     -7.79113098	     20.88912787	     19.43296032	      8.16190192	      5.33559040	     14.44897806
      3.65000000	    -13.24253030	     -3.19348177	     -8.38059058	     -2.00507686	     -0.06259200	      0.47799134	     -2.34036223	      6.28206857	     10.87643230	    -26.85690116	     -0.02106311	     22.58992648	     16.21861177	     44.76663439	     -6.06249121	     -0.05195791	    -22.90484803	     -8.24653488	     20.84360759	     19.46730039	      8.44866103	      4.94259142	     14.44212407
      3.65500000	    -13.41441096	     -2.85873711	     -8.37720638	     -1.99666977	     -0.06318303	      0.47774933	     -1.81471380	      5.76995541	     10.20079317	    -27.98971363	     -1.70964787	     23.55423824	     17.51896533	     45.08553042	     -5.69153563	     -0.05002217	    -24.00779982	     -8.70734091	     20.58193322	     19.36698430	      8.76072390	      4.52112153	     14.45493691
      3.66000000	    -13.54923699	     -2.39710369	     -8.35499361	     -1.98805452	     -0.06365204	      0.47762421	     -1.28998537	      5.12544915	      9.58333786	    -29.19148876	     -3.37126424	     24.51966382	     18.23120324	     45.33235406	     -5.22753049	     -0.22917344	    -25.08037518	     -8.98497563	     20.51089621	     19.28492977	      9.08959681	      3.93339287	     14.45651973
      3.66500000	    -13.60615546	     -2.01866445	     -8.32172742	     -1.97960522	     -0.06396073	      0.47730748	     -0.81267993	      4.53009743	      8.91695330	    -30.29312729	     -5.66681547	     25.17227295	     20.21945483	     45.49692740	     -4.74847640	     -0.13082571	    -26.18244178	     -9.17276727	     20.07337021	     18.87469111	      9.27733820	      3.44996736	     14.46467049
      3.67000000	    -13.66509247	     -1.54612627	     -8.34867458	     -1.97111664	     -0.06426340	      0.47702545	     -0.23349156	      3.81337880	      8.30821241	    -31.62850427	     -7.54850842	     26.25327691	     20.80543077	     45.64491441	     -4.25671614	     -0.29085558	    -27.25601865	     -9.22975041	     19.73471704	     18.67253815	      9.48619059	      2.88920339	     14.51394624
      3.67500000	    -13.69308833	     -0.97159271	     -8.30054464	     -1.96244715	     -0.06445907	      0.47672618	      0.33647419	      2.98801733	      7.69535975	    -32.95736151	     -9.60015770	     27.09086835	     21.35069572	     45.70938004	     -3.60877078	     -0.40290810	    -28.24434648	     -9.22368335	     19.34857934	     18.38403116	      9.70841454	      2.18868112	     14.52168803
      3.68000000	    -13.55433379	     -0.48085828	     -8.27670984	     -1.95385425	     -0.06444340	      0.47628630	      0.74157939	      2.20308659	      7.10416009	    -34.18365266	    -12.12286822	     27.65786541	     22.76734853	     45.57644634	     -2.98587613	     -0.41742642	    -29.26138106	     -8.91376592	     18.83348903	     17.76203575	      9.70511472	      1.59087562	     14.59213117
      3.68500000	    -13.52188448	      0.09582081	     -8.29450351	     -1.94520090	     -0.06455643	      0.47588687	      1.34744943	      1.34558104	      6.61353254	    -35.61685058	    -14.25234054	     28.37588172	     22.89684081	     45.52062409	     -2.34300212	     -0.61195406	    -30.17535635	     -8.68945604	     18.22816256	     17.53550565	      9.85409355	      0.93473556	     14.65576672
      3.69000000	    -13.39271872	      0.68029657	     -8.28059566	     -1.93652934	     -0.06455074	      0.47541358	      1.87424382	      0.46146867	      6.12900891	    -37.03700437	    -16.50505573	     28.86596175	     23.10014311	     45.31922217	     -1.63256901	     -0.74227280	    -31.02872231	     -8.33616707	     17.55880666	     17.16622687	      9.89487334	      0.25604873	     14.71547594
      3.69500000	    -13.23583315	      1.24975655	     -8.26670331	     -1.92793548	     -0.06451738	      0.47495220	      2.41245125	     -0.39842516	      5.69984628	    -38.48868248	    -18.77665053	     29.14375623	     23.21501427	     45.06323358	     -0.92989702	     -0.87636519	    -31.83956163	     -7.86403885	     16.96265862	     16.77903301	      9.88890904	     -0.41047278	     14.78061615
      3.70000000	    -13.09681773	      1.78837737	     -8.24977871	     -1.91932731	     -0.06453805	      0.47448605	      2.99616251	     -1.20619613	      5.32578538	    -39.97961105	    -20.95285607	     29.19240017	     23.01851307	     44.79077415	     -0.25144325	     -1.03969602	    -32.58674567	     -7.30882790	     16.32553374	     16.53685691	      9.91202300	     -1.03093455	     14.80994573
      3.70500000	    -12.97911027	      2.29851396	     -8.19928342	     -1.91086440	     -0.06462246	      0.47404769	      3.64947717	     -1.96128110	      4.96486002	    -41.54059243	    -22.97541781	     29.03722910	     22.59984807	     44.51468006	      0.41040041	     -1.16648808	    -33.25753742	     -6.71691209	     15.85976883	     16.54953714	      9.93066978	     -1.64041003	     14.80867629
      3.71000000	    -12.84461464	      2.80230062	     -8.14537852	     -1.90246619	     -0.06468700	      0.47351470	      4.31691909	     -2.70775635	      4.64273719	    -43.11614067	    -24.89301435	     28.67517476	     22.15212901	     44.18878269	      1.09547735	     -1.28286264	    -33.86824809	     -6.12456072	     15.25767259	     16.46379517	      9.92776008	     -2.21967517	     14.79499124
      3.71500000	    -12.65302769	      3.26577816	     -8.06817394	     -1.89418688	     -0.06466647	      0.47284986	      4.94234219	     -3.40757412	      4.37292418	    -44.68241512	    -26.70840135	     28.15001533	     21.76694146	     43.76612731	      1.80541643	     -1.32813511	    -34.43479918	     -5.41897952	     14.55444102	     15.95075813	      9.83417511	     -2.75381376	     14.72966744
